<?xml version="1.0" encoding="iso-8859-1"?>
<!-- Generator: Adobe Illustrator 19.0.0, SVG Export Plug-In . SVG Version: 6.00 Build 0)  -->
<svg xmlns="http://www.w3.org/2000/svg" xmlns:xlink="http://www.w3.org/1999/xlink" version="1.1" id="Capa_1" x="0px" y="0px" viewBox="0 0 512 512" style="enable-background:new 0 0 512 512;" xml:space="preserve">
<g>
	<g>
		<path d="M467,30h-17.58C443.228,12.542,426.555,0,407,0H285c-11.517,0-22.032,4.354-30,11.495C247.032,4.354,236.517,0,225,0H105    C85.445,0,68.772,12.542,62.58,30H45C20.187,30,0,50.187,0,75v392c0,24.813,20.187,45,45,45h422c24.813,0,45-20.187,45-45V75    C512,50.187,491.813,30,467,30z M45,482c-8.271,0-15-6.729-15-15V75c0-8.271,6.729-15,15-15h15v347c0,24.813,20.188,45,45.002,45    H195c19.555,0,36.228,12.542,42.42,30H45z M240,437c0,0.012,0,0.024,0,0.036C227.457,427.6,211.869,422,195,422h-89.998    C96.729,422,90,415.271,90,407V45c0-8.271,6.729-15,15-15h120c8.271,0,15,6.729,15,15V437z M330,30h30v128.787l-4.394-4.393    c-5.857-5.858-15.355-5.858-21.213,0L330,158.787V30z M270,437V45c0-8.271,6.729-15,15-15h15v165    c0,13.304,16.163,20.051,25.606,10.606L345,186.213l19.394,19.393C373.783,214.999,390,208.406,390,195V30h17    c8.271,0,15,6.729,15,15v362c0,8.271-6.729,15-15.001,15H315c-16.869,0-32.457,5.6-45,15.036V437z M482,467    c0,8.271-6.729,15-15,15H272.58c6.192-17.458,22.865-30,42.42-30h91.999C431.813,452,452,431.813,452,407V60h15    c8.271,0,15,6.729,15,15V467z"/>
	</g>
</g>
<g>
	<g>
		<path d="M375,362h-60c-8.284,0-15,6.716-15,15s6.716,15,15,15h60c8.284,0,15-6.716,15-15S383.284,362,375,362z"/>
	</g>
</g>
<g>
	<g>
		<path d="M375,300h-60c-8.284,0-15,6.716-15,15s6.716,15,15,15h60c8.284,0,15-6.716,15-15S383.284,300,375,300z"/>
	</g>
</g>
<g>
	<g>
		<path d="M375,240h-60c-8.284,0-15,6.716-15,15s6.716,15,15,15h60c8.284,0,15-6.716,15-15S383.284,240,375,240z"/>
	</g>
</g>
<g>
	<g>
		<path d="M195,180h-60c-8.284,0-15,6.716-15,15s6.716,15,15,15h60c8.284,0,15-6.716,15-15S203.284,180,195,180z"/>
	</g>
</g>
<g>
	<g>
		<path d="M195,240h-60c-8.284,0-15,6.716-15,15s6.716,15,15,15h60c8.284,0,15-6.716,15-15S203.284,240,195,240z"/>
	</g>
</g>
<g>
	<g>
		<path d="M195,300h-60c-8.284,0-15,6.716-15,15s6.716,15,15,15h60c8.284,0,15-6.716,15-15S203.284,300,195,300z"/>
	</g>
</g>
<g>
	<g>
		<path d="M195,362h-60c-8.284,0-15,6.716-15,15s6.716,15,15,15h60c8.284,0,15-6.716,15-15S203.284,362,195,362z"/>
	</g>
</g>
<g>
	<g>
		<path d="M195,60h-60c-8.284,0-15,6.716-15,15v60c0,8.284,6.716,15,15,15h60c8.284,0,15-6.716,15-15V75    C210,66.716,203.284,60,195,60z M180,120h-30V90h30V120z"/>
	</g>
</g>
<g>
</g>
<g>
</g>
<g>
</g>
<g>
</g>
<g>
</g>
<g>
</g>
<g>
</g>
<g>
</g>
<g>
</g>
<g>
</g>
<g>
</g>
<g>
</g>
<g>
</g>
<g>
</g>
<g>
</g>
</svg>
