<?xml version="1.0" encoding="iso-8859-1"?>
<!-- Generator: Adobe Illustrator 19.0.0, SVG Export Plug-In . SVG Version: 6.00 Build 0)  -->
<svg xmlns="http://www.w3.org/2000/svg" xmlns:xlink="http://www.w3.org/1999/xlink" version="1.1" id="Capa_1" x="0px" y="0px" viewBox="0 0 512 512" style="enable-background:new 0 0 512 512;" xml:space="preserve">
<g>
	<g>
		<path d="M498.832,55.605L456.405,13.18c-8.5-8.5-19.8-13.18-31.82-13.18s-23.32,4.681-31.82,13.18L46.831,359.114    c-1.435,1.436-2.72,3.378-3.492,5.525c-0.041,0.115-0.093,0.222-0.132,0.339L0.781,492.257c-1.796,5.39-0.394,11.333,3.624,15.35    c4.021,4.021,9.965,5.418,15.35,3.623l127.279-42.427c2.018-0.672,4.222-1.981,5.863-3.624l345.935-345.934    C516.375,101.7,516.375,73.151,498.832,55.605z M38.729,473.284l25.264-75.795l4.052,4.052    c8.137,8.137,18.642,12.494,29.317,13.083c0.598,11.089,5.196,21.431,13.109,29.344l4.051,4.051L38.729,473.284z M142.29,433.36    l-10.607-10.607c-2.833-2.833-4.394-6.6-4.394-10.606s1.561-7.773,4.395-10.606c5.858-5.858,5.858-15.355,0-21.213    c-5.858-5.858-15.355-5.858-21.213,0c-5.849,5.848-15.365,5.849-21.213,0L78.65,369.721l239.868-239.868l63.64,63.64    L142.29,433.36z M403.372,172.279l-63.64-63.64l21.213-21.213l63.64,63.64L403.372,172.279z M477.617,98.034l-31.82,31.82    l-63.64-63.64l31.821-31.82c2.833-2.833,6.6-4.394,10.607-4.394c4.006,0,7.773,1.56,10.606,4.394l42.426,42.426    C483.466,82.669,483.466,92.185,477.617,98.034z"/>
	</g>
</g>
<g>
</g>
<g>
</g>
<g>
</g>
<g>
</g>
<g>
</g>
<g>
</g>
<g>
</g>
<g>
</g>
<g>
</g>
<g>
</g>
<g>
</g>
<g>
</g>
<g>
</g>
<g>
</g>
<g>
</g>
</svg>
