<?xml version="1.0" encoding="iso-8859-1"?>
<!-- Generator: Adobe Illustrator 19.0.0, SVG Export Plug-In . SVG Version: 6.00 Build 0)  -->
<svg xmlns="http://www.w3.org/2000/svg" xmlns:xlink="http://www.w3.org/1999/xlink" version="1.1" id="Capa_1" x="0px" y="0px" viewBox="0 0 512 512" style="enable-background:new 0 0 512 512;" xml:space="preserve">
<g>
	<g>
		<path d="M346,392h-30c-8.284,0-15,6.716-15,15s6.716,15,15,15h30c8.284,0,15-6.716,15-15S354.284,392,346,392z"/>
	</g>
</g>
<g>
	<g>
		<path d="M436,422h-15.689c-5.755-63.554-47.693-116.816-105-138.967c16.642-11.799,30.426-28.741,38.346-48.997    C360.246,237.822,367.871,240,376,240c24.813,0,45-20.187,45-45v-30c0-19.775-12.828-36.6-30.595-42.622    C384.02,53.836,326.183,0,256,0S127.98,53.836,121.595,122.378C103.828,128.4,91,145.225,91,165v30c0,24.813,20.187,45,45,45    c8.129,0,15.754-2.178,22.343-5.964c7.916,20.245,21.698,37.193,38.346,48.997c-57.307,22.151-99.245,75.414-105,138.967H76    c-24.813,0-45,20.187-45,45s20.187,45,45,45c10.717,0,341.452,0,360,0c24.813,0,45-20.187,45-45S460.813,422,436,422z M361,165    c0-8.271,6.729-15,15-15s15,6.729,15,15v30c0,8.271-6.729,15-15,15s-15-6.729-15-15V165z M151,195c0,8.271-6.729,15-15,15    s-15-6.729-15-15v-30c0-8.271,6.729-15,15-15s15,6.729,15,15V195z M169.715,135.242c-4.853-5.492-11.018-9.795-18.006-12.407    C157.758,70.648,202.218,30,256,30c53.782,0,98.242,40.648,104.291,92.835c-6.988,2.612-13.153,6.916-18.006,12.407    C323.308,107.924,291.711,90,256.001,90C220.291,90,188.693,107.924,169.715,135.242z M329.491,180    c-14.741,0-30.494,1.759-45.442-13.312c-14.798-14.92-13.051-30.218-13.05-45.179C300.343,127.489,323.51,150.656,329.491,180z     M227.953,166.687C213.053,181.71,197.364,180,182.509,180c5.98-29.343,29.147-52.51,58.49-58.491    C240.998,135.988,242.814,151.701,227.953,166.687z M182.503,210H196c24.038,0,45.839-11.208,60-30.003    C270.158,198.79,291.961,210,316,210h13.497c-7.018,34.85-37.826,62-73.497,62S189.52,244.85,182.503,210z M106,482H76    c-8.271,0-15-6.729-15-15s6.729-15,15-15h30c8.271,0,15,6.729,15,15S114.271,482,106,482z M241,482h-92.58    c1.665-4.695,2.58-9.742,2.58-15c0-19.346-12.273-35.878-29.441-42.224c4.486-49.731,36.048-91.765,79.795-111.209L241,353.213    V482z M234.013,303.8c7.158-1.177,14.501-1.8,21.987-1.8c7.486,0,14.829,0.623,21.987,1.8L256,325.787L234.013,303.8z M361,467    c0,5.258,0.915,10.305,2.58,15H271V353.213l39.646-39.646c43.747,19.444,75.309,61.478,79.795,111.209    C373.273,431.122,361,447.654,361,467z M436,482h-30c-8.271,0-15-6.729-15-15s6.729-15,15-15h30c8.271,0,15,6.729,15,15    S444.271,482,436,482z"/>
	</g>
</g>
<g>
</g>
<g>
</g>
<g>
</g>
<g>
</g>
<g>
</g>
<g>
</g>
<g>
</g>
<g>
</g>
<g>
</g>
<g>
</g>
<g>
</g>
<g>
</g>
<g>
</g>
<g>
</g>
<g>
</g>
</svg>
