<?xml version="1.0" encoding="UTF-8" standalone="no"?>
<!-- Generator: Adobe Illustrator 19.0.0, SVG Export Plug-In . SVG Version: 6.00 Build 0)  -->

<svg
   xmlns:dc="http://purl.org/dc/elements/1.1/"
   xmlns:cc="http://creativecommons.org/ns#"
   xmlns:rdf="http://www.w3.org/1999/02/22-rdf-syntax-ns#"
   xmlns:svg="http://www.w3.org/2000/svg"
   xmlns="http://www.w3.org/2000/svg"
   xmlns:sodipodi="http://sodipodi.sourceforge.net/DTD/sodipodi-0.dtd"
   xmlns:inkscape="http://www.inkscape.org/namespaces/inkscape"
   version="1.1"
   id="Layer_1"
   x="0px"
   y="0px"
   viewBox="0 0 296.02341 298.54144"
   xml:space="preserve"
   sodipodi:docname="linkedin.svg"
   width="296.02341"
   height="298.54144"
   inkscape:version="0.92.1 r15371"><metadata
     id="metadata4527"><rdf:RDF><cc:Work
         rdf:about=""><dc:format>image/svg+xml</dc:format><dc:type
           rdf:resource="http://purl.org/dc/dcmitype/StillImage" /><dc:title></dc:title></cc:Work></rdf:RDF></metadata><defs
     id="defs4525" /><sodipodi:namedview
     pagecolor="#ffffff"
     bordercolor="#666666"
     borderopacity="1"
     objecttolerance="10"
     gridtolerance="10"
     guidetolerance="10"
     inkscape:pageopacity="0"
     inkscape:pageshadow="2"
     inkscape:window-width="1858"
     inkscape:window-height="1057"
     id="namedview4523"
     showgrid="false"
     fit-margin-top="0"
     fit-margin-left="0"
     fit-margin-right="0"
     fit-margin-bottom="0"
     inkscape:zoom="0.61780105"
     inkscape:cx="-56.222359"
     inkscape:cy="149.57206"
     inkscape:window-x="54"
     inkscape:window-y="-8"
     inkscape:window-maximized="1"
     inkscape:current-layer="Layer_1" /><g
     id="g4492"
     transform="translate(-45.701173,-42.030633)" /><g
     id="g4494"
     transform="translate(-45.701173,-42.030633)" /><g
     id="g4496"
     transform="translate(-45.701173,-42.030633)" /><g
     id="g4498"
     transform="translate(-45.701173,-42.030633)" /><g
     id="g4500"
     transform="translate(-45.701173,-42.030633)" /><g
     id="g4502"
     transform="translate(-45.701173,-42.030633)" /><g
     id="g4504"
     transform="translate(-45.701173,-42.030633)" /><g
     id="g4506"
     transform="translate(-45.701173,-42.030633)" /><g
     id="g4508"
     transform="translate(-45.701173,-42.030633)" /><g
     id="g4510"
     transform="translate(-45.701173,-42.030633)" /><g
     id="g4512"
     transform="translate(-45.701173,-42.030633)" /><g
     id="g4514"
     transform="translate(-45.701173,-42.030633)" /><g
     id="g4516"
     transform="translate(-45.701173,-42.030633)" /><g
     id="g4518"
     transform="translate(-45.701173,-42.030633)" /><g
     id="g4520"
     transform="translate(-45.701173,-42.030633)" /><path
     style="opacity:1;fill:#ffffff;fill-opacity:1;fill-rule:evenodd;stroke:#0077b7;stroke-width:2;stroke-miterlimit:4;stroke-dasharray:none;stroke-dashoffset:0;stroke-opacity:1"
     d="m 13.379335,293.99988 c -3.162017,-3.16202 -3.237288,-5.39548 -3.237288,-96.05845 0,-87.86797 0.157958,-92.96412 2.960081,-95.5 2.496953,-2.25972 7.046528,-2.678843 29.078643,-2.678843 24.166046,0 26.243826,0.23405 27.794156,3.130883 1.09922,2.0539 1.67559,35.09653 1.67559,96.05845 0,87.97105 -0.15788,93.07046 -2.96008,95.60641 -2.48058,2.24489 -6.938,2.67884 -27.516945,2.67884 -22.398676,0 -24.841379,-0.28451 -27.794157,-3.23729 z"
     id="path5072"
     inkscape:connector-curvature="0" /><path
     style="opacity:1;fill:#ffffff;fill-opacity:1;fill-rule:evenodd;stroke:#0077b7;stroke-width:2;stroke-miterlimit:4;stroke-dasharray:none;stroke-dashoffset:0;stroke-opacity:1"
     d="M 22.900962,75.818407 C 7.7042493,67.879557 -1.1328517,51.026841 1.4455903,34.902147 3.0690753,24.749433 11.463122,12.345519 20.470045,6.7896419 32.11419,-0.39299309 46.437823,-0.92770109 58.690247,5.3628629 c 29.37088,15.0794071 29.4367,55.6538941 0.11442,70.5247241 -12.129784,6.15163 -24.039636,6.12869 -35.903705,-0.0692 z"
     id="path5074"
     inkscape:connector-curvature="0" /><path
     style="opacity:1;fill:#ffffff;fill-opacity:1;fill-rule:evenodd;stroke:#0077b7;stroke-width:2;stroke-miterlimit:4;stroke-dasharray:none;stroke-dashoffset:0;stroke-opacity:1"
     d="m 104.73744,294.94033 c -3.03766,-2.22059 -3.15674,-5.3724 -3.58575,-94.91515 -0.38979,-81.35645 -0.13923,-93.08305 2.06062,-96.44044 2.46233,-3.757983 2.94668,-3.822153 28.85095,-3.822153 18.3336,0 26.93734,0.590753 28.28896,1.942373 1.0683,1.06831 1.94237,6.16704 1.94237,11.33051 0,5.16348 0.64194,9.38814 1.42653,9.38814 0.78459,0 3.29312,-2.44723 5.57452,-5.43829 10.03819,-13.16075 29.22403,-20.472853 53.63352,-20.440813 31.56857,0.0414 50.87209,11.221563 62.50375,36.200583 8.20685,17.62423 9.5905,31.91208 9.5905,99.0334 0,52.725 -0.32216,60.69368 -2.54359,62.91509 -3.87455,3.87455 -54.31951,3.76098 -57.55271,-0.12949 -1.75923,-2.11698 -2.38991,-15.00044 -3.03082,-61.91321 -0.77597,-56.79867 -0.9533,-59.50681 -4.30303,-65.71456 -5.48915,-10.17255 -11.82442,-15.20095 -21.70945,-17.23113 -17.63271,-3.62139 -31.36358,4.76249 -38.82451,23.70571 -3.70853,9.41591 -3.8422,11.3889 -4.38666,64.74576 -0.49597,48.60411 -0.87067,55.27028 -3.20715,57.0572 -3.98432,3.04716 -50.50352,2.81466 -54.72805,-0.27353 z"
     id="path5076"
     inkscape:connector-curvature="0" /></svg>