<?xml version="1.0" encoding="UTF-8" standalone="no"?>
<!-- Generator: Adobe Illustrator 16.0.0, SVG Export Plug-In . SVG Version: 6.00 Build 0)  -->

<svg
   xmlns:dc="http://purl.org/dc/elements/1.1/"
   xmlns:cc="http://creativecommons.org/ns#"
   xmlns:rdf="http://www.w3.org/1999/02/22-rdf-syntax-ns#"
   xmlns:svg="http://www.w3.org/2000/svg"
   xmlns="http://www.w3.org/2000/svg"
   xmlns:sodipodi="http://sodipodi.sourceforge.net/DTD/sodipodi-0.dtd"
   xmlns:inkscape="http://www.inkscape.org/namespaces/inkscape"
   version="1.1"
   id="Capa_1"
   x="0px"
   y="0px"
   width="250.00003"
   height="270.88214"
   viewBox="0 0 45.898443 49.732268"
   xml:space="preserve"
   sodipodi:docname="researchgate-logo.svg"
   inkscape:version="0.92.1 r15371"><metadata
     id="metadata5121"><rdf:RDF><cc:Work
         rdf:about=""><dc:format>image/svg+xml</dc:format><dc:type
           rdf:resource="http://purl.org/dc/dcmitype/StillImage" /><dc:title></dc:title></cc:Work></rdf:RDF></metadata><defs
     id="defs5119" /><sodipodi:namedview
     pagecolor="#ffffff"
     bordercolor="#666666"
     borderopacity="1"
     objecttolerance="10"
     gridtolerance="10"
     guidetolerance="10"
     inkscape:pageopacity="0"
     inkscape:pageshadow="2"
     inkscape:window-width="1858"
     inkscape:window-height="1057"
     id="namedview5117"
     showgrid="false"
     fit-margin-top="0"
     fit-margin-left="0"
     fit-margin-right="0"
     fit-margin-bottom="0"
     inkscape:zoom="2.6074563"
     inkscape:cx="131.60682"
     inkscape:cy="142.11847"
     inkscape:window-x="54"
     inkscape:window-y="-8"
     inkscape:window-maximized="1"
     inkscape:current-layer="Capa_1" /><g
     id="g5086"
     transform="translate(0,-44.267731)" /><g
     id="g5088"
     transform="translate(0,-44.267731)" /><g
     id="g5090"
     transform="translate(0,-44.267731)" /><g
     id="g5092"
     transform="translate(0,-44.267731)" /><g
     id="g5094"
     transform="translate(0,-44.267731)" /><g
     id="g5096"
     transform="translate(0,-44.267731)" /><g
     id="g5098"
     transform="translate(0,-44.267731)" /><g
     id="g5100"
     transform="translate(0,-44.267731)" /><g
     id="g5102"
     transform="translate(0,-44.267731)" /><g
     id="g5104"
     transform="translate(0,-44.267731)" /><g
     id="g5106"
     transform="translate(0,-44.267731)" /><g
     id="g5108"
     transform="translate(0,-44.267731)" /><g
     id="g5110"
     transform="translate(0,-44.267731)" /><g
     id="g5112"
     transform="translate(0,-44.267731)" /><g
     id="g5114"
     transform="translate(0,-44.267731)" /><path
     style="fill:#000000;stroke-width:0.18359375"
     d=""
     id="path5692"
     inkscape:connector-curvature="0" /><path
     style="opacity:1;fill:#ffffff;fill-opacity:1;fill-rule:evenodd;stroke:#00ccbb;stroke-width:0;stroke-miterlimit:4;stroke-dasharray:none;stroke-dashoffset:0;stroke-opacity:1"
     d="m 160.37049,268.34825 c -0.52734,-0.0774 -2.25316,-0.32986 -3.83516,-0.56101 -9.8147,-1.43404 -20.80093,-7.18859 -28.38065,-14.86569 -10.23416,-10.36565 -27.03894,-34.65027 -44.488987,-64.2911 -3.228679,-5.48427 -6.176694,-10.4127 -6.551139,-10.95207 -0.669066,-0.96374 -0.808635,-0.98863 -8.090065,-1.44221 -7.887845,-0.49137 -17.495803,-0.60598 -18.499839,-0.2207 -0.540434,0.20738 -0.60325,1.97573 -0.57558,16.20353 0.01707,8.78391 0.165955,23.90951 0.330828,33.61246 0.27905,16.42268 0.35555,17.81397 1.107099,20.13456 1.791209,5.53085 4.559995,8.54018 9.189718,9.98809 2.242922,0.70146 10.171485,2.02385 17.050292,2.84378 l 2.205215,0.26285 v 3.23229 3.23229 H 41.097152 2.362082 v -3.25258 c 0,-3.06132 0.05074,-3.2637 0.8629099,-3.44173 0.4746005,-0.10403 2.8783106,-0.538 5.3415777,-0.96437 7.3384714,-1.27022 11.4491634,-3.0278 14.1981534,-6.07061 1.941444,-2.14894 2.538563,-3.43555 3.00696,-6.47908 0.923106,-5.99813 1.56396,-131.64491 0.753701,-147.771442 C 26.050897,88.101844 25.152102,84.852133 22.07165,81.442441 19.550416,78.651737 16.455559,77.343161 9.840635,76.270891 2.4888459,75.079177 2.362082,74.989189 2.362082,70.962003 v -2.472452 l 11.409587,-0.252288 c 6.275273,-0.138758 23.145163,-0.418213 37.488645,-0.621009 35.224721,-0.498028 47.263826,0.0055 55.829786,2.335055 19.26835,5.240118 32.64563,17.657087 36.97526,34.320911 5.38191,20.71387 -1.74884,41.6099 -19.14277,56.09615 -5.96388,4.96692 -11.27698,8.10548 -18.34897,10.83911 -1.85051,0.71531 -3.81836,1.66239 -4.37298,2.10463 l -1.00841,0.80408 0.95392,2.08361 c 1.29746,2.83405 4.8742,8.72402 10.50789,17.30383 16.94752,25.81019 33.33694,46.46631 43.98175,55.43165 6.73388,5.67145 11.22105,8.06591 19.9341,10.63733 2.84216,0.83878 3.43971,1.15946 3.93104,2.10957 0.60573,1.17136 0.76998,3.73188 0.28589,4.45688 -1.02917,1.54131 -6.18262,2.43957 -13.70481,2.38877 -3.16401,-0.0214 -6.18419,-0.10218 -6.71152,-0.17958 z M 84.476833,162.80199 c 19.351067,-3.453 30.503377,-13.28069 35.100957,-30.93184 1.03373,-3.9687 1.09847,-4.67318 1.09267,-11.88898 -0.007,-8.46608 -0.44412,-11.09902 -2.90207,-17.47268 -4.84892,-12.573669 -16.98304,-20.971953 -32.758709,-22.672997 -6.22486,-0.671208 -30.021489,-0.653348 -33.078215,0.02483 l -2.396972,0.5318 v 40.945507 40.94551 l 1.821699,0.43314 c 3.441189,0.81821 9.124713,1.11904 18.88814,0.99977 7.807433,-0.0954 10.677633,-0.27972 14.2325,-0.91405 z"
     id="path5696"
     inkscape:connector-curvature="0"
     transform="scale(0.18359375)" /><path
     style="opacity:1;fill:#ffffff;fill-opacity:1;fill-rule:evenodd;stroke:#00ccbb;stroke-width:1;stroke-miterlimit:4;stroke-dasharray:none;stroke-dashoffset:0;stroke-opacity:1"
     d="m 158.83642,268.20004 c -10.9901,-1.51569 -21.6865,-6.57746 -29.41716,-13.92083 -9.9824,-9.4823 -27.39557,-34.53749 -46.81834,-67.36522 -4.25397,-7.18992 -6.015978,-9.84128 -6.671652,-10.03907 -2.720532,-0.82071 -24.110759,-1.43349 -25.234402,-0.72291 -0.808627,0.51136 -0.894512,7.9385 -0.465826,40.28332 0.343761,25.93682 0.391343,27.14048 1.168549,29.55836 1.157822,3.60198 3.375516,6.84926 5.693438,8.33667 2.814249,1.80589 7.448581,2.81026 20.727738,4.49215 l 2.013457,0.25502 v 3.22389 3.2239 H 41.097152 2.362082 v -3.25258 c 0,-3.062 0.050559,-3.26352 0.8629099,-3.43942 0.4746005,-0.10276 2.4161479,-0.45884 4.3145499,-0.79128 8.2166522,-1.43888 12.4800202,-3.22261 15.3608332,-6.42677 2.475656,-2.75353 2.844775,-4.37395 3.25249,-14.27835 0.191028,-4.64053 0.459987,-35.53271 0.597688,-68.64928 0.254112,-61.1132 0.05892,-75.091904 -1.11701,-79.99474 C 23.886091,81.407197 19.69463,77.966861 10.758061,76.483159 2.4704628,75.107203 2.362082,75.035972 2.362082,70.965104 v -2.46935 l 9.875525,-0.244707 c 5.431539,-0.134589 22.301429,-0.428857 37.488644,-0.653929 43.541325,-0.645275 52.570239,0.0099 64.350919,4.669891 16.36389,6.472872 26.74702,18.001453 30.48713,33.850421 0.90014,3.81443 1.01054,5.06218 1.02304,11.56264 0.0109,5.6587 -0.14148,7.99529 -0.68192,10.45778 -3.10459,14.14584 -11.41112,26.34229 -24.2288,35.57507 -3.35806,2.41887 -9.97397,5.90725 -15.26747,8.05012 -1.43631,0.58143 -2.96869,1.34641 -3.4053,1.69995 l -0.79383,0.6428 0.76327,1.7255 c 1.83971,4.15897 11.48516,19.23004 20.83207,32.55021 10.82174,15.42194 20.36949,27.29272 28.54782,35.4937 8.49946,8.523 14.2113,12.20139 23.46076,15.1086 2.77603,0.87253 5.26513,1.84887 5.53135,2.16964 0.26621,0.32077 0.55929,1.49084 0.65129,2.60015 0.20286,2.44627 -0.25101,3.0195 -3.09809,3.91284 -2.35445,0.73877 -15.00642,1.09294 -19.06207,0.53361 z M 78.489917,163.48645 c 22.729713,-1.97228 35.876573,-12.12818 41.139103,-31.77982 0.88826,-3.317 0.98634,-4.39397 1.01542,-11.15019 0.0365,-8.48658 -0.44324,-11.59084 -2.6908,-17.41053 C 113.40798,91.375704 103.92379,83.690619 90.187141,80.646584 83.475719,79.159336 57.038317,78.686955 51.540318,79.956046 l -2.005824,0.462999 v 40.943105 40.9431 l 2.205214,0.45902 c 5.030949,1.04721 18.739268,1.41729 26.750209,0.72218 z"
     id="path5698"
     inkscape:connector-curvature="0"
     transform="scale(0.18359375)" /><path
     style="opacity:1;fill:#ffffff;fill-opacity:1;fill-rule:evenodd;stroke:#00ccbb;stroke-width:1;stroke-miterlimit:4;stroke-dasharray:none;stroke-dashoffset:0;stroke-opacity:1"
     d="m 201.21489,109.54396 c -6.48102,-0.89628 -14.3726,-4.99007 -18.76506,-9.734456 -3.93009,-4.244965 -7.31264,-10.983712 -8.70732,-17.346811 -2.59313,-11.830844 -2.96721,-32.324496 -0.88429,-48.445403 0.68969,-5.337943 1.63617,-8.480413 4.02588,-13.366648 3.637,-7.43654 7.35728,-11.2642503 14.2887,-14.7013109 6.72041,-3.3324226 9.41989,-3.9066792 18.60902,-3.9586646 12.42419,-0.070287 20.08041,2.7670936 27.51161,10.1957475 3.51701,3.515807 7.06696,8.28726 7.06696,9.498635 0,0.846533 -2.48534,2.297567 -7.44792,4.348378 l -3.90935,1.615556 -1.51228,-2.346385 c -1.83016,-2.839585 -5.81424,-6.927921 -8.37519,-8.594335 -3.7412,-2.434416 -7.86743,-3.536174 -13.24343,-3.536174 -10.72314,0 -19.4833,6.865615 -22.03485,17.269412 -3.27041,13.334864 -3.18133,39.414829 0.17675,51.74992 1.63996,6.023994 5.03088,10.201541 10.41864,12.83556 3.94967,1.930955 7.08591,2.646219 11.60299,2.646219 7.16876,0 12.09541,-1.981897 16.90747,-6.801541 3.27755,-3.282724 4.63353,-5.572791 5.73845,-9.691518 0.63705,-2.374682 1.6029,-14.569449 1.23074,-15.539283 -0.17717,-0.461684 -1.41912,-0.626553 -6.29595,-0.835803 -3.34139,-0.143366 -7.9305,-0.368677 -10.19804,-0.500691 l -4.12279,-0.240023 V 58.62201 53.179682 l 8.11566,-0.252748 c 4.46362,-0.139009 12.24263,-0.252744 17.28668,-0.252744 h 9.17102 l -0.21517,5.656854 c -0.11835,3.11127 -0.31152,8.590748 -0.42927,12.176619 -0.11776,3.58587 -0.39319,8.073002 -0.61208,9.971404 -0.92967,8.062927 -5.11447,16.108496 -10.87654,20.910893 -4.47861,3.73268 -11.13501,7.0344 -15.8929,7.88321 -2.71764,0.48483 -15.71433,0.67376 -18.62814,0.27079 z"
     id="path5700"
     inkscape:connector-curvature="0"
     transform="scale(0.18359375)" /></svg>