<?xml version="1.0" encoding="UTF-8" standalone="no"?>
<svg
   xmlns:dc="http://purl.org/dc/elements/1.1/"
   xmlns:cc="http://creativecommons.org/ns#"
   xmlns:rdf="http://www.w3.org/1999/02/22-rdf-syntax-ns#"
   xmlns:svg="http://www.w3.org/2000/svg"
   xmlns="http://www.w3.org/2000/svg"
   xmlns:sodipodi="http://sodipodi.sourceforge.net/DTD/sodipodi-0.dtd"
   xmlns:inkscape="http://www.inkscape.org/namespaces/inkscape"
   class="icon"
   height="330.38803"
   viewBox="0 0 291.63025 660.77606"
   version="1.1"
   id="svg6"
   sodipodi:docname="schoolar google.svg"
   width="291.63025"
   inkscape:version="0.92.1 r15371">
  <metadata
     id="metadata12">
    <rdf:RDF>
      <cc:Work
         rdf:about="">
        <dc:format>image/svg+xml</dc:format>
        <dc:type
           rdf:resource="http://purl.org/dc/dcmitype/StillImage" />
        <dc:title></dc:title>
      </cc:Work>
    </rdf:RDF>
  </metadata>
  <defs
     id="defs10" />
  <sodipodi:namedview
     pagecolor="#ffffff"
     bordercolor="#666666"
     borderopacity="1"
     objecttolerance="10"
     gridtolerance="10"
     guidetolerance="10"
     inkscape:pageopacity="0"
     inkscape:pageshadow="2"
     inkscape:window-width="1858"
     inkscape:window-height="1057"
     id="namedview8"
     showgrid="false"
     fit-margin-top="0"
     fit-margin-left="0"
     fit-margin-right="0"
     fit-margin-bottom="0"
     inkscape:zoom="1.109375"
     inkscape:cx="190.62331"
     inkscape:cy="224.49671"
     inkscape:window-x="54"
     inkscape:window-y="-8"
     inkscape:window-maximized="1"
     inkscape:current-layer="svg6" />
  <path
     style="opacity:1;fill:#ffffff;fill-opacity:1;fill-rule:evenodd;stroke:#4285f4;stroke-width:4;stroke-miterlimit:4;stroke-dasharray:none;stroke-dashoffset:0;stroke-opacity:1"
     d="M 99.646616,657.95197 C 56.243476,654.85041 14.156136,639.41149 -8.5168633,618.27425 -32.183604,596.21057 -41.874524,575.10381 -41.874524,545.62141 c 0,-42.04108 23.41298,-76.90168 68.15818,-101.4837 25.65888,-14.0964 61.36904,-23.4151 110.320694,-28.78862 15.36902,-1.6871 28.20506,-3.23996 28.52454,-3.45084 0.31946,-0.21088 -2.6242,-5.12484 -6.54152,-10.9199 -10.11548,-14.96432 -12.41098,-20.05282 -14.67264,-32.52522 -1.92858,-10.63542 -1.03486,-18.28006 4.59532,-39.30706 0.9276,-3.46434 0.2363,-3.5803 -17.63914,-2.95952 C 88.528356,327.65705 56.318716,314.98569 28.824196,286.04111 8.0608567,264.18269 -1.3891833,241.29537 -3.4282833,207.92779 l -1.12794,-18.4577 -67.9721407,-0.47188 -67.972146,-0.47186 L -33.046664,95.299208 74.407176,2.0720615 255.44003,2.0034215 c 99.56808,-0.03774 180.69484,0.241126 180.2817,0.61972 -0.41316,0.378594 -6.95432,5.594708 -14.53596,11.5913645 -11.9187,9.427042 -14.20664,12.173102 -16.90104,20.285202 -4.22646,12.7247 -2.90238,29.6335 3.52038,44.95622 8.12652,19.38734 8.69018,23.828202 6.40696,50.478882 -1.77808,20.75438 -1.6416,27.92166 0.92684,48.67604 4.04704,32.702 5.82232,115.60726 2.77288,129.49206 -3.1745,14.4542 -7.9053,21.44726 -16.18774,23.92874 -14.46956,4.33518 -27.07638,-5.004 -30.76962,-22.79424 -2.72482,-13.12532 -2.79568,-87.504 -0.1168,-122.51388 1.23088,-16.08576 1.57988,-38.73456 0.8614,-55.90062 l -1.20782,-28.85836 5.43458,-11.705022 c 8.11738,-17.48298 12.74666,-45.05712 7.56446,-45.05712 -1.46174,0 -69.4404,52.36158 -95.10776,73.258202 l -4.16556,3.39132 5.44816,11.7034 c 8.60284,18.48008 11.18614,30.96682 11.18614,54.06962 0,23.90336 -2.63582,35.89024 -12.28924,55.88732 -5.71168,11.83176 -10.06114,17.01248 -34.81164,41.46478 -31.2277,30.85148 -34.89406,35.4034 -38.06496,47.25906 -5.03076,18.80942 4.20356,31.86014 46.43134,65.62078 29.68136,23.7299 42.2398,36.96526 51.64032,54.42384 30.65032,56.92374 9.30504,129.08742 -50.05408,169.22162 -40.15654,27.15084 -101.97626,40.88578 -164.056334,36.44962 z M 203.99033,622.21659 c 29.57344,-7.68146 53.04194,-23.0163 62.8759,-41.08452 10.96538,-20.14702 13.04208,-42.38184 6.02286,-64.48552 -7.03096,-22.14062 -26.57754,-43.95046 -62.15372,-69.35038 -21.56434,-15.39606 -25.56012,-16.22592 -61.45722,-12.76374 -29.74906,2.86922 -52.953614,9.01374 -75.109514,19.8889 -21.47784,10.54232 -33.94366,22.61788 -42.82606,41.4853 -4.76718,10.12614 -5.60362,14.16782 -6.15606,29.74648 -0.76212,21.49114 2.61846,34.47194 13.08346,50.23814 11.95888,18.0168 31.36434,31.38374 59.7809,41.17852 31.708814,10.92956 75.487534,13.05646 105.939454,5.14682 z M 186.55655,300.87807 c 20.92016,-7.27976 36.74694,-23.30366 43.03666,-43.57254 13.27366,-42.77506 -7.00386,-121.9572 -39.73958,-155.17996 -16.03942,-16.278062 -31.13642,-23.378602 -51.401,-24.175322 -17.36858,-0.68286 -29.05686,2.65722 -44.048954,12.58756 -23.77278,15.746442 -34.8278,48.549342 -30.24664,89.748902 7.29562,65.61096 40.820494,115.54496 83.582034,124.4921 10.67998,2.23462 25.4519,0.7502 38.81748,-3.90074 z"
     id="path4491"
     inkscape:connector-curvature="0" />
</svg>
